<?xml version="1.0" encoding="utf-8" standalone="no"?>
<!DOCTYPE svg PUBLIC "-//W3C//DTD SVG 1.1//EN"
  "http://www.w3.org/Graphics/SVG/1.1/DTD/svg11.dtd">
<svg xmlns:xlink="http://www.w3.org/1999/xlink" width="708.422187pt" height="564.487813pt" viewBox="0 0 708.422187 564.487813" xmlns="http://www.w3.org/2000/svg" version="1.1">
 <metadata>
  <rdf:RDF xmlns:dc="http://purl.org/dc/elements/1.1/" xmlns:cc="http://creativecommons.org/ns#" xmlns:rdf="http://www.w3.org/1999/02/22-rdf-syntax-ns#">
   <cc:Work>
    <dc:type rdf:resource="http://purl.org/dc/dcmitype/StillImage"/>
    <dc:date>2025-09-06T16:56:17.830133</dc:date>
    <dc:format>image/svg+xml</dc:format>
    <dc:creator>
     <cc:Agent>
      <dc:title>Matplotlib v3.9.4, https://matplotlib.org/</dc:title>
     </cc:Agent>
    </dc:creator>
   </cc:Work>
  </rdf:RDF>
 </metadata>
 <defs>
  <style type="text/css">*{stroke-linejoin: round; stroke-linecap: butt}</style>
 </defs>
 <g id="figure_1">
  <g id="patch_1">
   <path d="M 0 564.487813 
L 708.422187 564.487813 
L 708.422187 0 
L 0 0 
z
" style="fill: #ffffff"/>
  </g>
  <g id="axes_1">
   <g id="patch_2">
    <path d="M 59.217188 526.168125 
L 701.222187 526.168125 
L 701.222187 23.2625 
L 59.217188 23.2625 
z
" style="fill: #ffffff"/>
   </g>
   <g id="matplotlib.axis_1">
    <g id="xtick_1">
     <g id="line2d_1">
      <path d="M 146.763324 526.168125 
L 146.763324 23.2625 
" clip-path="url(#p3c3d91d26d)" style="fill: none; stroke: #cccccc; stroke-opacity: 0.3; stroke-width: 0.5; stroke-linecap: round"/>
     </g>
     <g id="text_1">
      <!-- −0.04 -->
      <g style="fill: #262626" transform="translate(134.112543 540.325938) scale(0.1 -0.1)">
       <defs>
        <path id="ArialMT-2212" d="M 3381 1997 
L 356 1997 
L 356 2522 
L 3381 2522 
L 3381 1997 
z
" transform="scale(0.015625)"/>
        <path id="ArialMT-30" d="M 266 2259 
Q 266 3072 433 3567 
Q 600 4063 929 4331 
Q 1259 4600 1759 4600 
Q 2128 4600 2406 4451 
Q 2684 4303 2865 4023 
Q 3047 3744 3150 3342 
Q 3253 2941 3253 2259 
Q 3253 1453 3087 958 
Q 2922 463 2592 192 
Q 2263 -78 1759 -78 
Q 1097 -78 719 397 
Q 266 969 266 2259 
z
M 844 2259 
Q 844 1131 1108 757 
Q 1372 384 1759 384 
Q 2147 384 2411 759 
Q 2675 1134 2675 2259 
Q 2675 3391 2411 3762 
Q 2147 4134 1753 4134 
Q 1366 4134 1134 3806 
Q 844 3388 844 2259 
z
" transform="scale(0.015625)"/>
        <path id="ArialMT-2e" d="M 581 0 
L 581 641 
L 1222 641 
L 1222 0 
L 581 0 
z
" transform="scale(0.015625)"/>
        <path id="ArialMT-34" d="M 2069 0 
L 2069 1097 
L 81 1097 
L 81 1613 
L 2172 4581 
L 2631 4581 
L 2631 1613 
L 3250 1613 
L 3250 1097 
L 2631 1097 
L 2631 0 
L 2069 0 
z
M 2069 1613 
L 2069 3678 
L 634 1613 
L 2069 1613 
z
" transform="scale(0.015625)"/>
       </defs>
       <use xlink:href="#ArialMT-2212"/>
       <use xlink:href="#ArialMT-30" x="58.398438"/>
       <use xlink:href="#ArialMT-2e" x="114.013672"/>
       <use xlink:href="#ArialMT-30" x="141.796875"/>
       <use xlink:href="#ArialMT-34" x="197.412109"/>
      </g>
     </g>
    </g>
    <g id="xtick_2">
     <g id="line2d_2">
      <path d="M 263.491506 526.168125 
L 263.491506 23.2625 
" clip-path="url(#p3c3d91d26d)" style="fill: none; stroke: #cccccc; stroke-opacity: 0.3; stroke-width: 0.5; stroke-linecap: round"/>
     </g>
     <g id="text_2">
      <!-- −0.02 -->
      <g style="fill: #262626" transform="translate(250.840724 540.325938) scale(0.1 -0.1)">
       <defs>
        <path id="ArialMT-32" d="M 3222 541 
L 3222 0 
L 194 0 
Q 188 203 259 391 
Q 375 700 629 1000 
Q 884 1300 1366 1694 
Q 2113 2306 2375 2664 
Q 2638 3022 2638 3341 
Q 2638 3675 2398 3904 
Q 2159 4134 1775 4134 
Q 1369 4134 1125 3890 
Q 881 3647 878 3216 
L 300 3275 
Q 359 3922 746 4261 
Q 1134 4600 1788 4600 
Q 2447 4600 2831 4234 
Q 3216 3869 3216 3328 
Q 3216 3053 3103 2787 
Q 2991 2522 2730 2228 
Q 2469 1934 1863 1422 
Q 1356 997 1212 845 
Q 1069 694 975 541 
L 3222 541 
z
" transform="scale(0.015625)"/>
       </defs>
       <use xlink:href="#ArialMT-2212"/>
       <use xlink:href="#ArialMT-30" x="58.398438"/>
       <use xlink:href="#ArialMT-2e" x="114.013672"/>
       <use xlink:href="#ArialMT-30" x="141.796875"/>
       <use xlink:href="#ArialMT-32" x="197.412109"/>
      </g>
     </g>
    </g>
    <g id="xtick_3">
     <g id="line2d_3">
      <path d="M 380.219687 526.168125 
L 380.219687 23.2625 
" clip-path="url(#p3c3d91d26d)" style="fill: none; stroke: #cccccc; stroke-opacity: 0.3; stroke-width: 0.5; stroke-linecap: round"/>
     </g>
     <g id="text_3">
      <!-- 0.00 -->
      <g style="fill: #262626" transform="translate(370.489219 540.325938) scale(0.1 -0.1)">
       <use xlink:href="#ArialMT-30"/>
       <use xlink:href="#ArialMT-2e" x="55.615234"/>
       <use xlink:href="#ArialMT-30" x="83.398438"/>
       <use xlink:href="#ArialMT-30" x="139.013672"/>
      </g>
     </g>
    </g>
    <g id="xtick_4">
     <g id="line2d_4">
      <path d="M 496.947869 526.168125 
L 496.947869 23.2625 
" clip-path="url(#p3c3d91d26d)" style="fill: none; stroke: #cccccc; stroke-opacity: 0.3; stroke-width: 0.5; stroke-linecap: round"/>
     </g>
     <g id="text_4">
      <!-- 0.02 -->
      <g style="fill: #262626" transform="translate(487.217401 540.325938) scale(0.1 -0.1)">
       <use xlink:href="#ArialMT-30"/>
       <use xlink:href="#ArialMT-2e" x="55.615234"/>
       <use xlink:href="#ArialMT-30" x="83.398438"/>
       <use xlink:href="#ArialMT-32" x="139.013672"/>
      </g>
     </g>
    </g>
    <g id="xtick_5">
     <g id="line2d_5">
      <path d="M 613.676051 526.168125 
L 613.676051 23.2625 
" clip-path="url(#p3c3d91d26d)" style="fill: none; stroke: #cccccc; stroke-opacity: 0.3; stroke-width: 0.5; stroke-linecap: round"/>
     </g>
     <g id="text_5">
      <!-- 0.04 -->
      <g style="fill: #262626" transform="translate(603.945582 540.325938) scale(0.1 -0.1)">
       <use xlink:href="#ArialMT-30"/>
       <use xlink:href="#ArialMT-2e" x="55.615234"/>
       <use xlink:href="#ArialMT-30" x="83.398438"/>
       <use xlink:href="#ArialMT-34" x="139.013672"/>
      </g>
     </g>
    </g>
    <g id="text_6">
     <!-- Feature Importance -->
     <g style="fill: #262626" transform="translate(327.865 554.902812) scale(0.12 -0.12)">
      <defs>
       <path id="ArialMT-46" d="M 525 0 
L 525 4581 
L 3616 4581 
L 3616 4041 
L 1131 4041 
L 1131 2622 
L 3281 2622 
L 3281 2081 
L 1131 2081 
L 1131 0 
L 525 0 
z
" transform="scale(0.015625)"/>
       <path id="ArialMT-65" d="M 2694 1069 
L 3275 997 
Q 3138 488 2766 206 
Q 2394 -75 1816 -75 
Q 1088 -75 661 373 
Q 234 822 234 1631 
Q 234 2469 665 2931 
Q 1097 3394 1784 3394 
Q 2450 3394 2872 2941 
Q 3294 2488 3294 1666 
Q 3294 1616 3291 1516 
L 816 1516 
Q 847 969 1125 678 
Q 1403 388 1819 388 
Q 2128 388 2347 550 
Q 2566 713 2694 1069 
z
M 847 1978 
L 2700 1978 
Q 2663 2397 2488 2606 
Q 2219 2931 1791 2931 
Q 1403 2931 1139 2672 
Q 875 2413 847 1978 
z
" transform="scale(0.015625)"/>
       <path id="ArialMT-61" d="M 2588 409 
Q 2275 144 1986 34 
Q 1697 -75 1366 -75 
Q 819 -75 525 192 
Q 231 459 231 875 
Q 231 1119 342 1320 
Q 453 1522 633 1644 
Q 813 1766 1038 1828 
Q 1203 1872 1538 1913 
Q 2219 1994 2541 2106 
Q 2544 2222 2544 2253 
Q 2544 2597 2384 2738 
Q 2169 2928 1744 2928 
Q 1347 2928 1158 2789 
Q 969 2650 878 2297 
L 328 2372 
Q 403 2725 575 2942 
Q 747 3159 1072 3276 
Q 1397 3394 1825 3394 
Q 2250 3394 2515 3294 
Q 2781 3194 2906 3042 
Q 3031 2891 3081 2659 
Q 3109 2516 3109 2141 
L 3109 1391 
Q 3109 606 3145 398 
Q 3181 191 3288 0 
L 2700 0 
Q 2613 175 2588 409 
z
M 2541 1666 
Q 2234 1541 1622 1453 
Q 1275 1403 1131 1340 
Q 988 1278 909 1158 
Q 831 1038 831 891 
Q 831 666 1001 516 
Q 1172 366 1500 366 
Q 1825 366 2078 508 
Q 2331 650 2450 897 
Q 2541 1088 2541 1459 
L 2541 1666 
z
" transform="scale(0.015625)"/>
       <path id="ArialMT-74" d="M 1650 503 
L 1731 6 
Q 1494 -44 1306 -44 
Q 1000 -44 831 53 
Q 663 150 594 308 
Q 525 466 525 972 
L 525 2881 
L 113 2881 
L 113 3319 
L 525 3319 
L 525 4141 
L 1084 4478 
L 1084 3319 
L 1650 3319 
L 1650 2881 
L 1084 2881 
L 1084 941 
Q 1084 700 1114 631 
Q 1144 563 1211 522 
Q 1278 481 1403 481 
Q 1497 481 1650 503 
z
" transform="scale(0.015625)"/>
       <path id="ArialMT-75" d="M 2597 0 
L 2597 488 
Q 2209 -75 1544 -75 
Q 1250 -75 995 37 
Q 741 150 617 320 
Q 494 491 444 738 
Q 409 903 409 1263 
L 409 3319 
L 972 3319 
L 972 1478 
Q 972 1038 1006 884 
Q 1059 663 1231 536 
Q 1403 409 1656 409 
Q 1909 409 2131 539 
Q 2353 669 2445 892 
Q 2538 1116 2538 1541 
L 2538 3319 
L 3100 3319 
L 3100 0 
L 2597 0 
z
" transform="scale(0.015625)"/>
       <path id="ArialMT-72" d="M 416 0 
L 416 3319 
L 922 3319 
L 922 2816 
Q 1116 3169 1280 3281 
Q 1444 3394 1641 3394 
Q 1925 3394 2219 3213 
L 2025 2691 
Q 1819 2813 1613 2813 
Q 1428 2813 1281 2702 
Q 1134 2591 1072 2394 
Q 978 2094 978 1738 
L 978 0 
L 416 0 
z
" transform="scale(0.015625)"/>
       <path id="ArialMT-20" transform="scale(0.015625)"/>
       <path id="ArialMT-49" d="M 597 0 
L 597 4581 
L 1203 4581 
L 1203 0 
L 597 0 
z
" transform="scale(0.015625)"/>
       <path id="ArialMT-6d" d="M 422 0 
L 422 3319 
L 925 3319 
L 925 2853 
Q 1081 3097 1340 3245 
Q 1600 3394 1931 3394 
Q 2300 3394 2536 3241 
Q 2772 3088 2869 2813 
Q 3263 3394 3894 3394 
Q 4388 3394 4653 3120 
Q 4919 2847 4919 2278 
L 4919 0 
L 4359 0 
L 4359 2091 
Q 4359 2428 4304 2576 
Q 4250 2725 4106 2815 
Q 3963 2906 3769 2906 
Q 3419 2906 3187 2673 
Q 2956 2441 2956 1928 
L 2956 0 
L 2394 0 
L 2394 2156 
Q 2394 2531 2256 2718 
Q 2119 2906 1806 2906 
Q 1569 2906 1367 2781 
Q 1166 2656 1075 2415 
Q 984 2175 984 1722 
L 984 0 
L 422 0 
z
" transform="scale(0.015625)"/>
       <path id="ArialMT-70" d="M 422 -1272 
L 422 3319 
L 934 3319 
L 934 2888 
Q 1116 3141 1344 3267 
Q 1572 3394 1897 3394 
Q 2322 3394 2647 3175 
Q 2972 2956 3137 2557 
Q 3303 2159 3303 1684 
Q 3303 1175 3120 767 
Q 2938 359 2589 142 
Q 2241 -75 1856 -75 
Q 1575 -75 1351 44 
Q 1128 163 984 344 
L 984 -1272 
L 422 -1272 
z
M 931 1641 
Q 931 1000 1190 694 
Q 1450 388 1819 388 
Q 2194 388 2461 705 
Q 2728 1022 2728 1688 
Q 2728 2322 2467 2637 
Q 2206 2953 1844 2953 
Q 1484 2953 1207 2617 
Q 931 2281 931 1641 
z
" transform="scale(0.015625)"/>
       <path id="ArialMT-6f" d="M 213 1659 
Q 213 2581 725 3025 
Q 1153 3394 1769 3394 
Q 2453 3394 2887 2945 
Q 3322 2497 3322 1706 
Q 3322 1066 3130 698 
Q 2938 331 2570 128 
Q 2203 -75 1769 -75 
Q 1072 -75 642 372 
Q 213 819 213 1659 
z
M 791 1659 
Q 791 1022 1069 705 
Q 1347 388 1769 388 
Q 2188 388 2466 706 
Q 2744 1025 2744 1678 
Q 2744 2294 2464 2611 
Q 2184 2928 1769 2928 
Q 1347 2928 1069 2612 
Q 791 2297 791 1659 
z
" transform="scale(0.015625)"/>
       <path id="ArialMT-6e" d="M 422 0 
L 422 3319 
L 928 3319 
L 928 2847 
Q 1294 3394 1984 3394 
Q 2284 3394 2536 3286 
Q 2788 3178 2913 3003 
Q 3038 2828 3088 2588 
Q 3119 2431 3119 2041 
L 3119 0 
L 2556 0 
L 2556 2019 
Q 2556 2363 2490 2533 
Q 2425 2703 2258 2804 
Q 2091 2906 1866 2906 
Q 1506 2906 1245 2678 
Q 984 2450 984 1813 
L 984 0 
L 422 0 
z
" transform="scale(0.015625)"/>
       <path id="ArialMT-63" d="M 2588 1216 
L 3141 1144 
Q 3050 572 2676 248 
Q 2303 -75 1759 -75 
Q 1078 -75 664 370 
Q 250 816 250 1647 
Q 250 2184 428 2587 
Q 606 2991 970 3192 
Q 1334 3394 1763 3394 
Q 2303 3394 2647 3120 
Q 2991 2847 3088 2344 
L 2541 2259 
Q 2463 2594 2264 2762 
Q 2066 2931 1784 2931 
Q 1359 2931 1093 2626 
Q 828 2322 828 1663 
Q 828 994 1084 691 
Q 1341 388 1753 388 
Q 2084 388 2306 591 
Q 2528 794 2588 1216 
z
" transform="scale(0.015625)"/>
      </defs>
      <use xlink:href="#ArialMT-46"/>
      <use xlink:href="#ArialMT-65" x="61.083984"/>
      <use xlink:href="#ArialMT-61" x="116.699219"/>
      <use xlink:href="#ArialMT-74" x="172.314453"/>
      <use xlink:href="#ArialMT-75" x="200.097656"/>
      <use xlink:href="#ArialMT-72" x="255.712891"/>
      <use xlink:href="#ArialMT-65" x="289.013672"/>
      <use xlink:href="#ArialMT-20" x="344.628906"/>
      <use xlink:href="#ArialMT-49" x="372.412109"/>
      <use xlink:href="#ArialMT-6d" x="400.195312"/>
      <use xlink:href="#ArialMT-70" x="483.496094"/>
      <use xlink:href="#ArialMT-6f" x="539.111328"/>
      <use xlink:href="#ArialMT-72" x="594.726562"/>
      <use xlink:href="#ArialMT-74" x="628.027344"/>
      <use xlink:href="#ArialMT-61" x="655.810547"/>
      <use xlink:href="#ArialMT-6e" x="711.425781"/>
      <use xlink:href="#ArialMT-63" x="767.041016"/>
      <use xlink:href="#ArialMT-65" x="817.041016"/>
     </g>
    </g>
   </g>
   <g id="matplotlib.axis_2">
    <g id="ytick_1">
     <g id="line2d_6">
      <path d="M 59.217188 55.357946 
L 701.222187 55.357946 
" clip-path="url(#p3c3d91d26d)" style="fill: none; stroke: #cccccc; stroke-opacity: 0.3; stroke-width: 0.5; stroke-linecap: round"/>
     </g>
     <g id="text_7">
      <!-- A_freq -->
      <g style="fill: #262626" transform="translate(22.75625 58.99779) scale(0.1 -0.1)">
       <defs>
        <path id="ArialMT-41" d="M -9 0 
L 1750 4581 
L 2403 4581 
L 4278 0 
L 3588 0 
L 3053 1388 
L 1138 1388 
L 634 0 
L -9 0 
z
M 1313 1881 
L 2866 1881 
L 2388 3150 
Q 2169 3728 2063 4100 
Q 1975 3659 1816 3225 
L 1313 1881 
z
" transform="scale(0.015625)"/>
        <path id="ArialMT-5f" d="M -97 -1272 
L -97 -866 
L 3631 -866 
L 3631 -1272 
L -97 -1272 
z
" transform="scale(0.015625)"/>
        <path id="ArialMT-66" d="M 556 0 
L 556 2881 
L 59 2881 
L 59 3319 
L 556 3319 
L 556 3672 
Q 556 4006 616 4169 
Q 697 4388 901 4523 
Q 1106 4659 1475 4659 
Q 1713 4659 2000 4603 
L 1916 4113 
Q 1741 4144 1584 4144 
Q 1328 4144 1222 4034 
Q 1116 3925 1116 3625 
L 1116 3319 
L 1763 3319 
L 1763 2881 
L 1116 2881 
L 1116 0 
L 556 0 
z
" transform="scale(0.015625)"/>
        <path id="ArialMT-71" d="M 2538 -1272 
L 2538 353 
Q 2406 169 2170 47 
Q 1934 -75 1669 -75 
Q 1078 -75 651 397 
Q 225 869 225 1691 
Q 225 2191 398 2587 
Q 572 2984 901 3189 
Q 1231 3394 1625 3394 
Q 2241 3394 2594 2875 
L 2594 3319 
L 3100 3319 
L 3100 -1272 
L 2538 -1272 
z
M 803 1669 
Q 803 1028 1072 708 
Q 1341 388 1716 388 
Q 2075 388 2334 692 
Q 2594 997 2594 1619 
Q 2594 2281 2320 2615 
Q 2047 2950 1678 2950 
Q 1313 2950 1058 2639 
Q 803 2328 803 1669 
z
" transform="scale(0.015625)"/>
       </defs>
       <use xlink:href="#ArialMT-41"/>
       <use xlink:href="#ArialMT-5f" x="66.699219"/>
       <use xlink:href="#ArialMT-66" x="122.314453"/>
       <use xlink:href="#ArialMT-72" x="150.097656"/>
       <use xlink:href="#ArialMT-65" x="183.398438"/>
       <use xlink:href="#ArialMT-71" x="239.013672"/>
      </g>
     </g>
    </g>
    <g id="ytick_2">
     <g id="line2d_7">
      <path d="M 59.217188 78.448195 
L 701.222187 78.448195 
" clip-path="url(#p3c3d91d26d)" style="fill: none; stroke: #cccccc; stroke-opacity: 0.3; stroke-width: 0.5; stroke-linecap: round"/>
     </g>
     <g id="text_8">
      <!-- T_freq -->
      <g style="fill: #262626" transform="translate(23.31875 82.088039) scale(0.1 -0.1)">
       <defs>
        <path id="ArialMT-54" d="M 1659 0 
L 1659 4041 
L 150 4041 
L 150 4581 
L 3781 4581 
L 3781 4041 
L 2266 4041 
L 2266 0 
L 1659 0 
z
" transform="scale(0.015625)"/>
       </defs>
       <use xlink:href="#ArialMT-54"/>
       <use xlink:href="#ArialMT-5f" x="61.083984"/>
       <use xlink:href="#ArialMT-66" x="116.699219"/>
       <use xlink:href="#ArialMT-72" x="144.482422"/>
       <use xlink:href="#ArialMT-65" x="177.783203"/>
       <use xlink:href="#ArialMT-71" x="233.398438"/>
      </g>
     </g>
    </g>
    <g id="ytick_3">
     <g id="line2d_8">
      <path d="M 59.217188 101.538444 
L 701.222187 101.538444 
" clip-path="url(#p3c3d91d26d)" style="fill: none; stroke: #cccccc; stroke-opacity: 0.3; stroke-width: 0.5; stroke-linecap: round"/>
     </g>
     <g id="text_9">
      <!-- G_freq -->
      <g style="fill: #262626" transform="translate(21.648438 105.178288) scale(0.1 -0.1)">
       <defs>
        <path id="ArialMT-47" d="M 2638 1797 
L 2638 2334 
L 4578 2338 
L 4578 638 
Q 4131 281 3656 101 
Q 3181 -78 2681 -78 
Q 2006 -78 1454 211 
Q 903 500 622 1047 
Q 341 1594 341 2269 
Q 341 2938 620 3517 
Q 900 4097 1425 4378 
Q 1950 4659 2634 4659 
Q 3131 4659 3532 4498 
Q 3934 4338 4162 4050 
Q 4391 3763 4509 3300 
L 3963 3150 
Q 3859 3500 3706 3700 
Q 3553 3900 3268 4020 
Q 2984 4141 2638 4141 
Q 2222 4141 1919 4014 
Q 1616 3888 1430 3681 
Q 1244 3475 1141 3228 
Q 966 2803 966 2306 
Q 966 1694 1177 1281 
Q 1388 869 1791 669 
Q 2194 469 2647 469 
Q 3041 469 3416 620 
Q 3791 772 3984 944 
L 3984 1797 
L 2638 1797 
z
" transform="scale(0.015625)"/>
       </defs>
       <use xlink:href="#ArialMT-47"/>
       <use xlink:href="#ArialMT-5f" x="77.783203"/>
       <use xlink:href="#ArialMT-66" x="133.398438"/>
       <use xlink:href="#ArialMT-72" x="161.181641"/>
       <use xlink:href="#ArialMT-65" x="194.482422"/>
       <use xlink:href="#ArialMT-71" x="250.097656"/>
      </g>
     </g>
    </g>
    <g id="ytick_4">
     <g id="line2d_9">
      <path d="M 59.217188 124.628693 
L 701.222187 124.628693 
" clip-path="url(#p3c3d91d26d)" style="fill: none; stroke: #cccccc; stroke-opacity: 0.3; stroke-width: 0.5; stroke-linecap: round"/>
     </g>
     <g id="text_10">
      <!-- C_freq -->
      <g style="fill: #262626" transform="translate(22.204688 128.268537) scale(0.1 -0.1)">
       <defs>
        <path id="ArialMT-43" d="M 3763 1606 
L 4369 1453 
Q 4178 706 3683 314 
Q 3188 -78 2472 -78 
Q 1731 -78 1267 223 
Q 803 525 561 1097 
Q 319 1669 319 2325 
Q 319 3041 592 3573 
Q 866 4106 1370 4382 
Q 1875 4659 2481 4659 
Q 3169 4659 3637 4309 
Q 4106 3959 4291 3325 
L 3694 3184 
Q 3534 3684 3231 3912 
Q 2928 4141 2469 4141 
Q 1941 4141 1586 3887 
Q 1231 3634 1087 3207 
Q 944 2781 944 2328 
Q 944 1744 1114 1308 
Q 1284 872 1643 656 
Q 2003 441 2422 441 
Q 2931 441 3284 734 
Q 3638 1028 3763 1606 
z
" transform="scale(0.015625)"/>
       </defs>
       <use xlink:href="#ArialMT-43"/>
       <use xlink:href="#ArialMT-5f" x="72.216797"/>
       <use xlink:href="#ArialMT-66" x="127.832031"/>
       <use xlink:href="#ArialMT-72" x="155.615234"/>
       <use xlink:href="#ArialMT-65" x="188.916016"/>
       <use xlink:href="#ArialMT-71" x="244.53125"/>
      </g>
     </g>
    </g>
    <g id="ytick_5">
     <g id="line2d_10">
      <path d="M 59.217188 147.718943 
L 701.222187 147.718943 
" clip-path="url(#p3c3d91d26d)" style="fill: none; stroke: #cccccc; stroke-opacity: 0.3; stroke-width: 0.5; stroke-linecap: round"/>
     </g>
     <g id="text_11">
      <!-- N_freq -->
      <g style="fill: #262626" transform="translate(22.204688 151.358786) scale(0.1 -0.1)">
       <defs>
        <path id="ArialMT-4e" d="M 488 0 
L 488 4581 
L 1109 4581 
L 3516 984 
L 3516 4581 
L 4097 4581 
L 4097 0 
L 3475 0 
L 1069 3600 
L 1069 0 
L 488 0 
z
" transform="scale(0.015625)"/>
       </defs>
       <use xlink:href="#ArialMT-4e"/>
       <use xlink:href="#ArialMT-5f" x="72.216797"/>
       <use xlink:href="#ArialMT-66" x="127.832031"/>
       <use xlink:href="#ArialMT-72" x="155.615234"/>
       <use xlink:href="#ArialMT-65" x="188.916016"/>
       <use xlink:href="#ArialMT-71" x="244.53125"/>
      </g>
     </g>
    </g>
    <g id="ytick_6">
     <g id="line2d_11">
      <path d="M 59.217188 170.809192 
L 701.222187 170.809192 
" clip-path="url(#p3c3d91d26d)" style="fill: none; stroke: #cccccc; stroke-opacity: 0.3; stroke-width: 0.5; stroke-linecap: round"/>
     </g>
     <g id="text_12">
      <!-- AAA_freq -->
      <g style="fill: #262626" transform="translate(9.415625 174.449035) scale(0.1 -0.1)">
       <use xlink:href="#ArialMT-41"/>
       <use xlink:href="#ArialMT-41" x="66.699219"/>
       <use xlink:href="#ArialMT-41" x="133.398438"/>
       <use xlink:href="#ArialMT-5f" x="200.097656"/>
       <use xlink:href="#ArialMT-66" x="255.712891"/>
       <use xlink:href="#ArialMT-72" x="283.496094"/>
       <use xlink:href="#ArialMT-65" x="316.796875"/>
       <use xlink:href="#ArialMT-71" x="372.412109"/>
      </g>
     </g>
    </g>
    <g id="ytick_7">
     <g id="line2d_12">
      <path d="M 59.217188 193.899441 
L 701.222187 193.899441 
" clip-path="url(#p3c3d91d26d)" style="fill: none; stroke: #cccccc; stroke-opacity: 0.3; stroke-width: 0.5; stroke-linecap: round"/>
     </g>
     <g id="text_13">
      <!-- AAT_freq -->
      <g style="fill: #262626" transform="translate(10.715625 197.539284) scale(0.1 -0.1)">
       <use xlink:href="#ArialMT-41"/>
       <use xlink:href="#ArialMT-41" x="66.699219"/>
       <use xlink:href="#ArialMT-54" x="126.023438"/>
       <use xlink:href="#ArialMT-5f" x="187.107422"/>
       <use xlink:href="#ArialMT-66" x="242.722656"/>
       <use xlink:href="#ArialMT-72" x="270.505859"/>
       <use xlink:href="#ArialMT-65" x="303.806641"/>
       <use xlink:href="#ArialMT-71" x="359.421875"/>
      </g>
     </g>
    </g>
    <g id="ytick_8">
     <g id="line2d_13">
      <path d="M 59.217188 216.98969 
L 701.222187 216.98969 
" clip-path="url(#p3c3d91d26d)" style="fill: none; stroke: #cccccc; stroke-opacity: 0.3; stroke-width: 0.5; stroke-linecap: round"/>
     </g>
     <g id="text_14">
      <!-- AAG_freq -->
      <g style="fill: #262626" transform="translate(8.307813 220.629534) scale(0.1 -0.1)">
       <use xlink:href="#ArialMT-41"/>
       <use xlink:href="#ArialMT-41" x="66.699219"/>
       <use xlink:href="#ArialMT-47" x="133.398438"/>
       <use xlink:href="#ArialMT-5f" x="211.181641"/>
       <use xlink:href="#ArialMT-66" x="266.796875"/>
       <use xlink:href="#ArialMT-72" x="294.580078"/>
       <use xlink:href="#ArialMT-65" x="327.880859"/>
       <use xlink:href="#ArialMT-71" x="383.496094"/>
      </g>
     </g>
    </g>
    <g id="ytick_9">
     <g id="line2d_14">
      <path d="M 59.217188 240.079939 
L 701.222187 240.079939 
" clip-path="url(#p3c3d91d26d)" style="fill: none; stroke: #cccccc; stroke-opacity: 0.3; stroke-width: 0.5; stroke-linecap: round"/>
     </g>
     <g id="text_15">
      <!-- AAC_freq -->
      <g style="fill: #262626" transform="translate(8.864063 243.719783) scale(0.1 -0.1)">
       <use xlink:href="#ArialMT-41"/>
       <use xlink:href="#ArialMT-41" x="66.699219"/>
       <use xlink:href="#ArialMT-43" x="133.398438"/>
       <use xlink:href="#ArialMT-5f" x="205.615234"/>
       <use xlink:href="#ArialMT-66" x="261.230469"/>
       <use xlink:href="#ArialMT-72" x="289.013672"/>
       <use xlink:href="#ArialMT-65" x="322.314453"/>
       <use xlink:href="#ArialMT-71" x="377.929688"/>
      </g>
     </g>
    </g>
    <g id="ytick_10">
     <g id="line2d_15">
      <path d="M 59.217188 263.170188 
L 701.222187 263.170188 
" clip-path="url(#p3c3d91d26d)" style="fill: none; stroke: #cccccc; stroke-opacity: 0.3; stroke-width: 0.5; stroke-linecap: round"/>
     </g>
     <g id="text_16">
      <!-- ATA_freq -->
      <g style="fill: #262626" transform="translate(11.453125 266.810032) scale(0.1 -0.1)">
       <use xlink:href="#ArialMT-41"/>
       <use xlink:href="#ArialMT-54" x="59.324219"/>
       <use xlink:href="#ArialMT-41" x="113.033203"/>
       <use xlink:href="#ArialMT-5f" x="179.732422"/>
       <use xlink:href="#ArialMT-66" x="235.347656"/>
       <use xlink:href="#ArialMT-72" x="263.130859"/>
       <use xlink:href="#ArialMT-65" x="296.431641"/>
       <use xlink:href="#ArialMT-71" x="352.046875"/>
      </g>
     </g>
    </g>
    <g id="ytick_11">
     <g id="line2d_16">
      <path d="M 59.217188 286.260437 
L 701.222187 286.260437 
" clip-path="url(#p3c3d91d26d)" style="fill: none; stroke: #cccccc; stroke-opacity: 0.3; stroke-width: 0.5; stroke-linecap: round"/>
     </g>
     <g id="text_17">
      <!-- ATT_freq -->
      <g style="fill: #262626" transform="translate(11.278125 289.900281) scale(0.1 -0.1)">
       <use xlink:href="#ArialMT-41"/>
       <use xlink:href="#ArialMT-54" x="59.324219"/>
       <use xlink:href="#ArialMT-54" x="120.408203"/>
       <use xlink:href="#ArialMT-5f" x="181.492188"/>
       <use xlink:href="#ArialMT-66" x="237.107422"/>
       <use xlink:href="#ArialMT-72" x="264.890625"/>
       <use xlink:href="#ArialMT-65" x="298.191406"/>
       <use xlink:href="#ArialMT-71" x="353.806641"/>
      </g>
     </g>
    </g>
    <g id="ytick_12">
     <g id="line2d_17">
      <path d="M 59.217188 309.350686 
L 701.222187 309.350686 
" clip-path="url(#p3c3d91d26d)" style="fill: none; stroke: #cccccc; stroke-opacity: 0.3; stroke-width: 0.5; stroke-linecap: round"/>
     </g>
     <g id="text_18">
      <!-- ATG_freq -->
      <g style="fill: #262626" transform="translate(9.607813 312.99053) scale(0.1 -0.1)">
       <use xlink:href="#ArialMT-41"/>
       <use xlink:href="#ArialMT-54" x="59.324219"/>
       <use xlink:href="#ArialMT-47" x="120.408203"/>
       <use xlink:href="#ArialMT-5f" x="198.191406"/>
       <use xlink:href="#ArialMT-66" x="253.806641"/>
       <use xlink:href="#ArialMT-72" x="281.589844"/>
       <use xlink:href="#ArialMT-65" x="314.890625"/>
       <use xlink:href="#ArialMT-71" x="370.505859"/>
      </g>
     </g>
    </g>
    <g id="ytick_13">
     <g id="line2d_18">
      <path d="M 59.217188 332.440935 
L 701.222187 332.440935 
" clip-path="url(#p3c3d91d26d)" style="fill: none; stroke: #cccccc; stroke-opacity: 0.3; stroke-width: 0.5; stroke-linecap: round"/>
     </g>
     <g id="text_19">
      <!-- ATC_freq -->
      <g style="fill: #262626" transform="translate(10.164063 336.080779) scale(0.1 -0.1)">
       <use xlink:href="#ArialMT-41"/>
       <use xlink:href="#ArialMT-54" x="59.324219"/>
       <use xlink:href="#ArialMT-43" x="120.408203"/>
       <use xlink:href="#ArialMT-5f" x="192.625"/>
       <use xlink:href="#ArialMT-66" x="248.240234"/>
       <use xlink:href="#ArialMT-72" x="276.023438"/>
       <use xlink:href="#ArialMT-65" x="309.324219"/>
       <use xlink:href="#ArialMT-71" x="364.939453"/>
      </g>
     </g>
    </g>
    <g id="ytick_14">
     <g id="line2d_19">
      <path d="M 59.217188 355.531184 
L 701.222187 355.531184 
" clip-path="url(#p3c3d91d26d)" style="fill: none; stroke: #cccccc; stroke-opacity: 0.3; stroke-width: 0.5; stroke-linecap: round"/>
     </g>
     <g id="text_20">
      <!-- AGA_freq -->
      <g style="fill: #262626" transform="translate(8.307813 359.171028) scale(0.1 -0.1)">
       <use xlink:href="#ArialMT-41"/>
       <use xlink:href="#ArialMT-47" x="66.699219"/>
       <use xlink:href="#ArialMT-41" x="144.482422"/>
       <use xlink:href="#ArialMT-5f" x="211.181641"/>
       <use xlink:href="#ArialMT-66" x="266.796875"/>
       <use xlink:href="#ArialMT-72" x="294.580078"/>
       <use xlink:href="#ArialMT-65" x="327.880859"/>
       <use xlink:href="#ArialMT-71" x="383.496094"/>
      </g>
     </g>
    </g>
    <g id="ytick_15">
     <g id="line2d_20">
      <path d="M 59.217188 378.621433 
L 701.222187 378.621433 
" clip-path="url(#p3c3d91d26d)" style="fill: none; stroke: #cccccc; stroke-opacity: 0.3; stroke-width: 0.5; stroke-linecap: round"/>
     </g>
     <g id="text_21">
      <!-- AGT_freq -->
      <g style="fill: #262626" transform="translate(8.870313 382.261277) scale(0.1 -0.1)">
       <use xlink:href="#ArialMT-41"/>
       <use xlink:href="#ArialMT-47" x="66.699219"/>
       <use xlink:href="#ArialMT-54" x="144.482422"/>
       <use xlink:href="#ArialMT-5f" x="205.566406"/>
       <use xlink:href="#ArialMT-66" x="261.181641"/>
       <use xlink:href="#ArialMT-72" x="288.964844"/>
       <use xlink:href="#ArialMT-65" x="322.265625"/>
       <use xlink:href="#ArialMT-71" x="377.880859"/>
      </g>
     </g>
    </g>
    <g id="ytick_16">
     <g id="line2d_21">
      <path d="M 59.217188 401.711682 
L 701.222187 401.711682 
" clip-path="url(#p3c3d91d26d)" style="fill: none; stroke: #cccccc; stroke-opacity: 0.3; stroke-width: 0.5; stroke-linecap: round"/>
     </g>
     <g id="text_22">
      <!-- AGG_freq -->
      <g style="fill: #262626" transform="translate(7.2 405.351526) scale(0.1 -0.1)">
       <use xlink:href="#ArialMT-41"/>
       <use xlink:href="#ArialMT-47" x="66.699219"/>
       <use xlink:href="#ArialMT-47" x="144.482422"/>
       <use xlink:href="#ArialMT-5f" x="222.265625"/>
       <use xlink:href="#ArialMT-66" x="277.880859"/>
       <use xlink:href="#ArialMT-72" x="305.664062"/>
       <use xlink:href="#ArialMT-65" x="338.964844"/>
       <use xlink:href="#ArialMT-71" x="394.580078"/>
      </g>
     </g>
    </g>
    <g id="ytick_17">
     <g id="line2d_22">
      <path d="M 59.217188 424.801932 
L 701.222187 424.801932 
" clip-path="url(#p3c3d91d26d)" style="fill: none; stroke: #cccccc; stroke-opacity: 0.3; stroke-width: 0.5; stroke-linecap: round"/>
     </g>
     <g id="text_23">
      <!-- AGC_freq -->
      <g style="fill: #262626" transform="translate(7.75625 428.441775) scale(0.1 -0.1)">
       <use xlink:href="#ArialMT-41"/>
       <use xlink:href="#ArialMT-47" x="66.699219"/>
       <use xlink:href="#ArialMT-43" x="144.482422"/>
       <use xlink:href="#ArialMT-5f" x="216.699219"/>
       <use xlink:href="#ArialMT-66" x="272.314453"/>
       <use xlink:href="#ArialMT-72" x="300.097656"/>
       <use xlink:href="#ArialMT-65" x="333.398438"/>
       <use xlink:href="#ArialMT-71" x="389.013672"/>
      </g>
     </g>
    </g>
    <g id="ytick_18">
     <g id="line2d_23">
      <path d="M 59.217188 447.892181 
L 701.222187 447.892181 
" clip-path="url(#p3c3d91d26d)" style="fill: none; stroke: #cccccc; stroke-opacity: 0.3; stroke-width: 0.5; stroke-linecap: round"/>
     </g>
     <g id="text_24">
      <!-- ACA_freq -->
      <g style="fill: #262626" transform="translate(8.864063 451.532024) scale(0.1 -0.1)">
       <use xlink:href="#ArialMT-41"/>
       <use xlink:href="#ArialMT-43" x="66.699219"/>
       <use xlink:href="#ArialMT-41" x="138.916016"/>
       <use xlink:href="#ArialMT-5f" x="205.615234"/>
       <use xlink:href="#ArialMT-66" x="261.230469"/>
       <use xlink:href="#ArialMT-72" x="289.013672"/>
       <use xlink:href="#ArialMT-65" x="322.314453"/>
       <use xlink:href="#ArialMT-71" x="377.929688"/>
      </g>
     </g>
    </g>
    <g id="ytick_19">
     <g id="line2d_24">
      <path d="M 59.217188 470.98243 
L 701.222187 470.98243 
" clip-path="url(#p3c3d91d26d)" style="fill: none; stroke: #cccccc; stroke-opacity: 0.3; stroke-width: 0.5; stroke-linecap: round"/>
     </g>
     <g id="text_25">
      <!-- ACT_freq -->
      <g style="fill: #262626" transform="translate(9.426563 474.622273) scale(0.1 -0.1)">
       <use xlink:href="#ArialMT-41"/>
       <use xlink:href="#ArialMT-43" x="66.699219"/>
       <use xlink:href="#ArialMT-54" x="138.916016"/>
       <use xlink:href="#ArialMT-5f" x="200"/>
       <use xlink:href="#ArialMT-66" x="255.615234"/>
       <use xlink:href="#ArialMT-72" x="283.398438"/>
       <use xlink:href="#ArialMT-65" x="316.699219"/>
       <use xlink:href="#ArialMT-71" x="372.314453"/>
      </g>
     </g>
    </g>
    <g id="ytick_20">
     <g id="line2d_25">
      <path d="M 59.217188 494.072679 
L 701.222187 494.072679 
" clip-path="url(#p3c3d91d26d)" style="fill: none; stroke: #cccccc; stroke-opacity: 0.3; stroke-width: 0.5; stroke-linecap: round"/>
     </g>
     <g id="text_26">
      <!-- ACG_freq -->
      <g style="fill: #262626" transform="translate(7.75625 497.712523) scale(0.1 -0.1)">
       <use xlink:href="#ArialMT-41"/>
       <use xlink:href="#ArialMT-43" x="66.699219"/>
       <use xlink:href="#ArialMT-47" x="138.916016"/>
       <use xlink:href="#ArialMT-5f" x="216.699219"/>
       <use xlink:href="#ArialMT-66" x="272.314453"/>
       <use xlink:href="#ArialMT-72" x="300.097656"/>
       <use xlink:href="#ArialMT-65" x="333.398438"/>
       <use xlink:href="#ArialMT-71" x="389.013672"/>
      </g>
     </g>
    </g>
   </g>
   <g id="patch_3">
    <path d="M 380.219687 46.121847 
L 380.219687 46.121847 
L 380.219687 64.594046 
L 380.219687 64.594046 
z
" clip-path="url(#p3c3d91d26d)" style="fill: #471365; stroke: #ffffff; stroke-width: 0.5; stroke-linejoin: miter"/>
   </g>
   <g id="patch_4">
    <path d="M 380.219687 69.212096 
L 380.219687 69.212096 
L 380.219687 87.684295 
L 380.219687 87.684295 
z
" clip-path="url(#p3c3d91d26d)" style="fill: #482374; stroke: #ffffff; stroke-width: 0.5; stroke-linejoin: miter"/>
   </g>
   <g id="patch_5">
    <path d="M 380.219687 92.302345 
L 380.219687 92.302345 
L 380.219687 110.774544 
L 380.219687 110.774544 
z
" clip-path="url(#p3c3d91d26d)" style="fill: #46327e; stroke: #ffffff; stroke-width: 0.5; stroke-linejoin: miter"/>
   </g>
   <g id="patch_6">
    <path d="M 380.219687 115.392594 
L 380.219687 115.392594 
L 380.219687 133.864793 
L 380.219687 133.864793 
z
" clip-path="url(#p3c3d91d26d)" style="fill: #424086; stroke: #ffffff; stroke-width: 0.5; stroke-linejoin: miter"/>
   </g>
   <g id="patch_7">
    <path d="M 380.219687 138.482843 
L 380.219687 138.482843 
L 380.219687 156.955042 
L 380.219687 156.955042 
z
" clip-path="url(#p3c3d91d26d)" style="fill: #3d4e8a; stroke: #ffffff; stroke-width: 0.5; stroke-linejoin: miter"/>
   </g>
   <g id="patch_8">
    <path d="M 380.219687 161.573092 
L 380.219687 161.573092 
L 380.219687 180.045291 
L 380.219687 180.045291 
z
" clip-path="url(#p3c3d91d26d)" style="fill: #365c8d; stroke: #ffffff; stroke-width: 0.5; stroke-linejoin: miter"/>
   </g>
   <g id="patch_9">
    <path d="M 380.219687 184.663341 
L 380.219687 184.663341 
L 380.219687 203.13554 
L 380.219687 203.13554 
z
" clip-path="url(#p3c3d91d26d)" style="fill: #31688e; stroke: #ffffff; stroke-width: 0.5; stroke-linejoin: miter"/>
   </g>
   <g id="patch_10">
    <path d="M 380.219687 207.75359 
L 380.219687 207.75359 
L 380.219687 226.225789 
L 380.219687 226.225789 
z
" clip-path="url(#p3c3d91d26d)" style="fill: #2c738e; stroke: #ffffff; stroke-width: 0.5; stroke-linejoin: miter"/>
   </g>
   <g id="patch_11">
    <path d="M 380.219687 230.843839 
L 380.219687 230.843839 
L 380.219687 249.316039 
L 380.219687 249.316039 
z
" clip-path="url(#p3c3d91d26d)" style="fill: #277f8e; stroke: #ffffff; stroke-width: 0.5; stroke-linejoin: miter"/>
   </g>
   <g id="patch_12">
    <path d="M 380.219687 253.934088 
L 380.219687 253.934088 
L 380.219687 272.406288 
L 380.219687 272.406288 
z
" clip-path="url(#p3c3d91d26d)" style="fill: #238a8d; stroke: #ffffff; stroke-width: 0.5; stroke-linejoin: miter"/>
   </g>
   <g id="patch_13">
    <path d="M 380.219687 277.024337 
L 380.219687 277.024337 
L 380.219687 295.496537 
L 380.219687 295.496537 
z
" clip-path="url(#p3c3d91d26d)" style="fill: #1f968b; stroke: #ffffff; stroke-width: 0.5; stroke-linejoin: miter"/>
   </g>
   <g id="patch_14">
    <path d="M 380.219687 300.114586 
L 380.219687 300.114586 
L 380.219687 318.586786 
L 380.219687 318.586786 
z
" clip-path="url(#p3c3d91d26d)" style="fill: #1fa187; stroke: #ffffff; stroke-width: 0.5; stroke-linejoin: miter"/>
   </g>
   <g id="patch_15">
    <path d="M 380.219687 323.204836 
L 380.219687 323.204836 
L 380.219687 341.677035 
L 380.219687 341.677035 
z
" clip-path="url(#p3c3d91d26d)" style="fill: #26ad81; stroke: #ffffff; stroke-width: 0.5; stroke-linejoin: miter"/>
   </g>
   <g id="patch_16">
    <path d="M 380.219687 346.295085 
L 380.219687 346.295085 
L 380.219687 364.767284 
L 380.219687 364.767284 
z
" clip-path="url(#p3c3d91d26d)" style="fill: #35b779; stroke: #ffffff; stroke-width: 0.5; stroke-linejoin: miter"/>
   </g>
   <g id="patch_17">
    <path d="M 380.219687 369.385334 
L 380.219687 369.385334 
L 380.219687 387.857533 
L 380.219687 387.857533 
z
" clip-path="url(#p3c3d91d26d)" style="fill: #4ac16d; stroke: #ffffff; stroke-width: 0.5; stroke-linejoin: miter"/>
   </g>
   <g id="patch_18">
    <path d="M 380.219687 392.475583 
L 380.219687 392.475583 
L 380.219687 410.947782 
L 380.219687 410.947782 
z
" clip-path="url(#p3c3d91d26d)" style="fill: #65cb5e; stroke: #ffffff; stroke-width: 0.5; stroke-linejoin: miter"/>
   </g>
   <g id="patch_19">
    <path d="M 380.219687 415.565832 
L 380.219687 415.565832 
L 380.219687 434.038031 
L 380.219687 434.038031 
z
" clip-path="url(#p3c3d91d26d)" style="fill: #81d34d; stroke: #ffffff; stroke-width: 0.5; stroke-linejoin: miter"/>
   </g>
   <g id="patch_20">
    <path d="M 380.219687 438.656081 
L 380.219687 438.656081 
L 380.219687 457.12828 
L 380.219687 457.12828 
z
" clip-path="url(#p3c3d91d26d)" style="fill: #a0da39; stroke: #ffffff; stroke-width: 0.5; stroke-linejoin: miter"/>
   </g>
   <g id="patch_21">
    <path d="M 380.219687 461.74633 
L 380.219687 461.74633 
L 380.219687 480.218529 
L 380.219687 480.218529 
z
" clip-path="url(#p3c3d91d26d)" style="fill: #c0df25; stroke: #ffffff; stroke-width: 0.5; stroke-linejoin: miter"/>
   </g>
   <g id="patch_22">
    <path d="M 380.219687 484.836579 
L 380.219687 484.836579 
L 380.219687 503.308778 
L 380.219687 503.308778 
z
" clip-path="url(#p3c3d91d26d)" style="fill: #dfe318; stroke: #ffffff; stroke-width: 0.5; stroke-linejoin: miter"/>
   </g>
   <g id="patch_23">
    <path d="M 59.217188 526.168125 
L 59.217188 23.2625 
" style="fill: none; stroke: #cccccc; stroke-width: 0.8; stroke-linejoin: miter; stroke-linecap: square"/>
   </g>
   <g id="patch_24">
    <path d="M 701.222187 526.168125 
L 701.222187 23.2625 
" style="fill: none; stroke: #cccccc; stroke-width: 0.8; stroke-linejoin: miter; stroke-linecap: square"/>
   </g>
   <g id="patch_25">
    <path d="M 59.217188 526.168125 
L 701.222187 526.168125 
" style="fill: none; stroke: #cccccc; stroke-width: 0.8; stroke-linejoin: miter; stroke-linecap: square"/>
   </g>
   <g id="patch_26">
    <path d="M 59.217188 23.2625 
L 701.222187 23.2625 
" style="fill: none; stroke: #cccccc; stroke-width: 0.8; stroke-linejoin: miter; stroke-linecap: square"/>
   </g>
   <g id="text_27">
    <!-- 0.000 -->
    <g style="fill: #262626" transform="translate(380.219687 57.684587) scale(0.09 -0.09)">
     <use xlink:href="#ArialMT-30"/>
     <use xlink:href="#ArialMT-2e" x="55.615234"/>
     <use xlink:href="#ArialMT-30" x="83.398438"/>
     <use xlink:href="#ArialMT-30" x="139.013672"/>
     <use xlink:href="#ArialMT-30" x="194.628906"/>
    </g>
   </g>
   <g id="text_28">
    <!-- 0.000 -->
    <g style="fill: #262626" transform="translate(380.219687 80.774836) scale(0.09 -0.09)">
     <use xlink:href="#ArialMT-30"/>
     <use xlink:href="#ArialMT-2e" x="55.615234"/>
     <use xlink:href="#ArialMT-30" x="83.398438"/>
     <use xlink:href="#ArialMT-30" x="139.013672"/>
     <use xlink:href="#ArialMT-30" x="194.628906"/>
    </g>
   </g>
   <g id="text_29">
    <!-- 0.000 -->
    <g style="fill: #262626" transform="translate(380.219687 103.865085) scale(0.09 -0.09)">
     <use xlink:href="#ArialMT-30"/>
     <use xlink:href="#ArialMT-2e" x="55.615234"/>
     <use xlink:href="#ArialMT-30" x="83.398438"/>
     <use xlink:href="#ArialMT-30" x="139.013672"/>
     <use xlink:href="#ArialMT-30" x="194.628906"/>
    </g>
   </g>
   <g id="text_30">
    <!-- 0.000 -->
    <g style="fill: #262626" transform="translate(380.219687 126.955334) scale(0.09 -0.09)">
     <use xlink:href="#ArialMT-30"/>
     <use xlink:href="#ArialMT-2e" x="55.615234"/>
     <use xlink:href="#ArialMT-30" x="83.398438"/>
     <use xlink:href="#ArialMT-30" x="139.013672"/>
     <use xlink:href="#ArialMT-30" x="194.628906"/>
    </g>
   </g>
   <g id="text_31">
    <!-- 0.000 -->
    <g style="fill: #262626" transform="translate(380.219687 150.045583) scale(0.09 -0.09)">
     <use xlink:href="#ArialMT-30"/>
     <use xlink:href="#ArialMT-2e" x="55.615234"/>
     <use xlink:href="#ArialMT-30" x="83.398438"/>
     <use xlink:href="#ArialMT-30" x="139.013672"/>
     <use xlink:href="#ArialMT-30" x="194.628906"/>
    </g>
   </g>
   <g id="text_32">
    <!-- 0.000 -->
    <g style="fill: #262626" transform="translate(380.219687 173.135832) scale(0.09 -0.09)">
     <use xlink:href="#ArialMT-30"/>
     <use xlink:href="#ArialMT-2e" x="55.615234"/>
     <use xlink:href="#ArialMT-30" x="83.398438"/>
     <use xlink:href="#ArialMT-30" x="139.013672"/>
     <use xlink:href="#ArialMT-30" x="194.628906"/>
    </g>
   </g>
   <g id="text_33">
    <!-- 0.000 -->
    <g style="fill: #262626" transform="translate(380.219687 196.226081) scale(0.09 -0.09)">
     <use xlink:href="#ArialMT-30"/>
     <use xlink:href="#ArialMT-2e" x="55.615234"/>
     <use xlink:href="#ArialMT-30" x="83.398438"/>
     <use xlink:href="#ArialMT-30" x="139.013672"/>
     <use xlink:href="#ArialMT-30" x="194.628906"/>
    </g>
   </g>
   <g id="text_34">
    <!-- 0.000 -->
    <g style="fill: #262626" transform="translate(380.219687 219.31633) scale(0.09 -0.09)">
     <use xlink:href="#ArialMT-30"/>
     <use xlink:href="#ArialMT-2e" x="55.615234"/>
     <use xlink:href="#ArialMT-30" x="83.398438"/>
     <use xlink:href="#ArialMT-30" x="139.013672"/>
     <use xlink:href="#ArialMT-30" x="194.628906"/>
    </g>
   </g>
   <g id="text_35">
    <!-- 0.000 -->
    <g style="fill: #262626" transform="translate(380.219687 242.40658) scale(0.09 -0.09)">
     <use xlink:href="#ArialMT-30"/>
     <use xlink:href="#ArialMT-2e" x="55.615234"/>
     <use xlink:href="#ArialMT-30" x="83.398438"/>
     <use xlink:href="#ArialMT-30" x="139.013672"/>
     <use xlink:href="#ArialMT-30" x="194.628906"/>
    </g>
   </g>
   <g id="text_36">
    <!-- 0.000 -->
    <g style="fill: #262626" transform="translate(380.219687 265.496829) scale(0.09 -0.09)">
     <use xlink:href="#ArialMT-30"/>
     <use xlink:href="#ArialMT-2e" x="55.615234"/>
     <use xlink:href="#ArialMT-30" x="83.398438"/>
     <use xlink:href="#ArialMT-30" x="139.013672"/>
     <use xlink:href="#ArialMT-30" x="194.628906"/>
    </g>
   </g>
   <g id="text_37">
    <!-- 0.000 -->
    <g style="fill: #262626" transform="translate(380.219687 288.587078) scale(0.09 -0.09)">
     <use xlink:href="#ArialMT-30"/>
     <use xlink:href="#ArialMT-2e" x="55.615234"/>
     <use xlink:href="#ArialMT-30" x="83.398438"/>
     <use xlink:href="#ArialMT-30" x="139.013672"/>
     <use xlink:href="#ArialMT-30" x="194.628906"/>
    </g>
   </g>
   <g id="text_38">
    <!-- 0.000 -->
    <g style="fill: #262626" transform="translate(380.219687 311.677327) scale(0.09 -0.09)">
     <use xlink:href="#ArialMT-30"/>
     <use xlink:href="#ArialMT-2e" x="55.615234"/>
     <use xlink:href="#ArialMT-30" x="83.398438"/>
     <use xlink:href="#ArialMT-30" x="139.013672"/>
     <use xlink:href="#ArialMT-30" x="194.628906"/>
    </g>
   </g>
   <g id="text_39">
    <!-- 0.000 -->
    <g style="fill: #262626" transform="translate(380.219687 334.767576) scale(0.09 -0.09)">
     <use xlink:href="#ArialMT-30"/>
     <use xlink:href="#ArialMT-2e" x="55.615234"/>
     <use xlink:href="#ArialMT-30" x="83.398438"/>
     <use xlink:href="#ArialMT-30" x="139.013672"/>
     <use xlink:href="#ArialMT-30" x="194.628906"/>
    </g>
   </g>
   <g id="text_40">
    <!-- 0.000 -->
    <g style="fill: #262626" transform="translate(380.219687 357.857825) scale(0.09 -0.09)">
     <use xlink:href="#ArialMT-30"/>
     <use xlink:href="#ArialMT-2e" x="55.615234"/>
     <use xlink:href="#ArialMT-30" x="83.398438"/>
     <use xlink:href="#ArialMT-30" x="139.013672"/>
     <use xlink:href="#ArialMT-30" x="194.628906"/>
    </g>
   </g>
   <g id="text_41">
    <!-- 0.000 -->
    <g style="fill: #262626" transform="translate(380.219687 380.948074) scale(0.09 -0.09)">
     <use xlink:href="#ArialMT-30"/>
     <use xlink:href="#ArialMT-2e" x="55.615234"/>
     <use xlink:href="#ArialMT-30" x="83.398438"/>
     <use xlink:href="#ArialMT-30" x="139.013672"/>
     <use xlink:href="#ArialMT-30" x="194.628906"/>
    </g>
   </g>
   <g id="text_42">
    <!-- 0.000 -->
    <g style="fill: #262626" transform="translate(380.219687 404.038323) scale(0.09 -0.09)">
     <use xlink:href="#ArialMT-30"/>
     <use xlink:href="#ArialMT-2e" x="55.615234"/>
     <use xlink:href="#ArialMT-30" x="83.398438"/>
     <use xlink:href="#ArialMT-30" x="139.013672"/>
     <use xlink:href="#ArialMT-30" x="194.628906"/>
    </g>
   </g>
   <g id="text_43">
    <!-- 0.000 -->
    <g style="fill: #262626" transform="translate(380.219687 427.128572) scale(0.09 -0.09)">
     <use xlink:href="#ArialMT-30"/>
     <use xlink:href="#ArialMT-2e" x="55.615234"/>
     <use xlink:href="#ArialMT-30" x="83.398438"/>
     <use xlink:href="#ArialMT-30" x="139.013672"/>
     <use xlink:href="#ArialMT-30" x="194.628906"/>
    </g>
   </g>
   <g id="text_44">
    <!-- 0.000 -->
    <g style="fill: #262626" transform="translate(380.219687 450.218821) scale(0.09 -0.09)">
     <use xlink:href="#ArialMT-30"/>
     <use xlink:href="#ArialMT-2e" x="55.615234"/>
     <use xlink:href="#ArialMT-30" x="83.398438"/>
     <use xlink:href="#ArialMT-30" x="139.013672"/>
     <use xlink:href="#ArialMT-30" x="194.628906"/>
    </g>
   </g>
   <g id="text_45">
    <!-- 0.000 -->
    <g style="fill: #262626" transform="translate(380.219687 473.30907) scale(0.09 -0.09)">
     <use xlink:href="#ArialMT-30"/>
     <use xlink:href="#ArialMT-2e" x="55.615234"/>
     <use xlink:href="#ArialMT-30" x="83.398438"/>
     <use xlink:href="#ArialMT-30" x="139.013672"/>
     <use xlink:href="#ArialMT-30" x="194.628906"/>
    </g>
   </g>
   <g id="text_46">
    <!-- 0.000 -->
    <g style="fill: #262626" transform="translate(380.219687 496.399319) scale(0.09 -0.09)">
     <use xlink:href="#ArialMT-30"/>
     <use xlink:href="#ArialMT-2e" x="55.615234"/>
     <use xlink:href="#ArialMT-30" x="83.398438"/>
     <use xlink:href="#ArialMT-30" x="139.013672"/>
     <use xlink:href="#ArialMT-30" x="194.628906"/>
    </g>
   </g>
   <g id="text_47">
    <!-- Top 20 Most Important Features -->
    <g style="fill: #262626" transform="translate(281.017656 17.2625) scale(0.14 -0.14)">
     <defs>
      <path id="ArialMT-4d" d="M 475 0 
L 475 4581 
L 1388 4581 
L 2472 1338 
Q 2622 884 2691 659 
Q 2769 909 2934 1394 
L 4031 4581 
L 4847 4581 
L 4847 0 
L 4263 0 
L 4263 3834 
L 2931 0 
L 2384 0 
L 1059 3900 
L 1059 0 
L 475 0 
z
" transform="scale(0.015625)"/>
      <path id="ArialMT-73" d="M 197 991 
L 753 1078 
Q 800 744 1014 566 
Q 1228 388 1613 388 
Q 2000 388 2187 545 
Q 2375 703 2375 916 
Q 2375 1106 2209 1216 
Q 2094 1291 1634 1406 
Q 1016 1563 777 1677 
Q 538 1791 414 1992 
Q 291 2194 291 2438 
Q 291 2659 392 2848 
Q 494 3038 669 3163 
Q 800 3259 1026 3326 
Q 1253 3394 1513 3394 
Q 1903 3394 2198 3281 
Q 2494 3169 2634 2976 
Q 2775 2784 2828 2463 
L 2278 2388 
Q 2241 2644 2061 2787 
Q 1881 2931 1553 2931 
Q 1166 2931 1000 2803 
Q 834 2675 834 2503 
Q 834 2394 903 2306 
Q 972 2216 1119 2156 
Q 1203 2125 1616 2013 
Q 2213 1853 2448 1751 
Q 2684 1650 2818 1456 
Q 2953 1263 2953 975 
Q 2953 694 2789 445 
Q 2625 197 2315 61 
Q 2006 -75 1616 -75 
Q 969 -75 630 194 
Q 291 463 197 991 
z
" transform="scale(0.015625)"/>
     </defs>
     <use xlink:href="#ArialMT-54"/>
     <use xlink:href="#ArialMT-6f" x="49.958984"/>
     <use xlink:href="#ArialMT-70" x="105.574219"/>
     <use xlink:href="#ArialMT-20" x="161.189453"/>
     <use xlink:href="#ArialMT-32" x="188.972656"/>
     <use xlink:href="#ArialMT-30" x="244.587891"/>
     <use xlink:href="#ArialMT-20" x="300.203125"/>
     <use xlink:href="#ArialMT-4d" x="327.986328"/>
     <use xlink:href="#ArialMT-6f" x="411.287109"/>
     <use xlink:href="#ArialMT-73" x="466.902344"/>
     <use xlink:href="#ArialMT-74" x="516.902344"/>
     <use xlink:href="#ArialMT-20" x="544.685547"/>
     <use xlink:href="#ArialMT-49" x="572.46875"/>
     <use xlink:href="#ArialMT-6d" x="600.251953"/>
     <use xlink:href="#ArialMT-70" x="683.552734"/>
     <use xlink:href="#ArialMT-6f" x="739.167969"/>
     <use xlink:href="#ArialMT-72" x="794.783203"/>
     <use xlink:href="#ArialMT-74" x="828.083984"/>
     <use xlink:href="#ArialMT-61" x="855.867188"/>
     <use xlink:href="#ArialMT-6e" x="911.482422"/>
     <use xlink:href="#ArialMT-74" x="967.097656"/>
     <use xlink:href="#ArialMT-20" x="994.880859"/>
     <use xlink:href="#ArialMT-46" x="1022.664062"/>
     <use xlink:href="#ArialMT-65" x="1083.748047"/>
     <use xlink:href="#ArialMT-61" x="1139.363281"/>
     <use xlink:href="#ArialMT-74" x="1194.978516"/>
     <use xlink:href="#ArialMT-75" x="1222.761719"/>
     <use xlink:href="#ArialMT-72" x="1278.376953"/>
     <use xlink:href="#ArialMT-65" x="1311.677734"/>
     <use xlink:href="#ArialMT-73" x="1367.292969"/>
    </g>
   </g>
  </g>
 </g>
 <defs>
  <clipPath id="p3c3d91d26d">
   <rect x="59.217188" y="23.2625" width="642.005" height="502.905625"/>
  </clipPath>
 </defs>
</svg>
